<svg xmlns="http://www.w3.org/2000/svg" viewBox="0 0 32 32">
  <defs>
    <radialGradient id="bg" cx="45%" cy="40%" r="55%">
      <stop offset="0%" stop-color="#60a5fa"/>
      <stop offset="60%" stop-color="#3b82f6"/>
      <stop offset="100%" stop-color="#1e40af"/>
    </radialGradient>
  </defs>
  <!-- Body -->
  <circle cx="16" cy="17" r="13" fill="url(#bg)"/>
  <!-- Left eye -->
  <circle cx="12" cy="16" r="2.2" fill="#00d4c8"/>
  <circle cx="12" cy="15.7" r="1" fill="#40fff0" opacity="0.7"/>
  <circle cx="11.5" cy="15.3" r="0.5" fill="#fff" opacity="0.5"/>
  <!-- Right eye -->
  <circle cx="20" cy="16" r="2.2" fill="#00d4c8"/>
  <circle cx="20" cy="15.7" r="1" fill="#40fff0" opacity="0.7"/>
  <circle cx="19.5" cy="15.3" r="0.5" fill="#fff" opacity="0.5"/>
  <!-- Left horn -->
  <path d="M10,6 Q9.5,3 8,1.5 Q7.5,1 8.2,1.8 Q9.5,3.5 10.5,5.5Z" fill="#2563eb"/>
  <!-- Right horn -->
  <path d="M22,6 Q22.5,3 24,1.5 Q24.5,1 23.8,1.8 Q22.5,3.5 21.5,5.5Z" fill="#2563eb"/>
  <!-- Left claw -->
  <ellipse cx="2" cy="17.5" rx="2.5" ry="2" fill="#2563eb"/>
  <!-- Right claw -->
  <ellipse cx="30" cy="17.5" rx="2.5" ry="2" fill="#2563eb"/>
</svg>
